#!OML:ASF F:\VICON\USERDATA\INSTALL\rory3\rory3.ASF
:FULLY-SPECIFIED
:DEGREES
19
root -0.5327029999999997 18.0353 -7.528570000000024 0.015910000000002533 9.105430000000004 -2.34103
lfemur -26.98709999999999 -3.2165599999999976 -22.1743
ltibia 31.46360000000003
lfoot -1.731989999999993 -16.8158
ltoes -2.808210000000005
rfemur 0.2259520000000279 -0.27852499999999836 30.3743
rtibia 87.19420000000001
rfoot 29.305699999999955 -15.083100000000002
rtoes 34.82090000000005
lowerback 16.564 1.2182700000000009 3.587340000000002
upperback 0.12753100000000162 2.364360000000001 0.6051079999999993
thorax -9.05722 0.9896869999999984 -1.947569999999994
lowerneck -20.6835 -6.260549999999998 -1.6068599999999984
upperneck 14.037799999999999 -8.510310000000004 2.5321299999999995
head 7.891049999999999 -3.870289999999997 0.02058379999999982
lclavicle 2.2164499999999954e-14 -1.1330700000000006e-14
lhumerus -62.976600000000026 -8.564889999999993 96.7716
lradius 111.431
lwrist 31.984399999999997
lhand -33.7647 0.8050819999999987
lfingers nan
lthumb -6.9524500000000025 30.6709
rclavicle 2.2164499999999954e-14 -1.1330700000000006e-14
rhumerus -48.7076 16.21559999999999 -105.384
rradius 116.98799999999999
rwrist -22.927899999999987
rhand -17.0737 34.9831
rfingers nan
rthumb 9.16427 5.202219999999999
20
root -0.5440620000000005 17.6805 -6.033020000000033 0.1551200000000028 9.184540000000009 -2.250610000000001
lfemur -26.7234 -3.337930000000003 -22.2896
ltibia 41.531299999999995
lfoot -12.761799999999974 -13.035699999999999
ltoes -1.2491200000000005
rfemur -7.2384699999999835 -3.272849999999994 27.5137
rtibia 98.63919999999996
rfoot 25.727200000000035 -11.902600000000005
rtoes 32.57429999999996
lowerback 17.2592 0.8799319999999995 2.923540000000002
upperback 0.2546389999999984 1.7979099999999986 0.465028
thorax -9.35543 0.7393079999999999 -1.6050399999999967
lowerneck -21.727900000000005 -6.082570000000001 -1.6722399999999993
upperneck 12.9118 -8.339180000000006 3.3702299999999994
head 7.728020000000002 -3.7107600000000005 0.3184770000000005
lclavicle 3.798029999999999e-14 5.665360000000007e-15
lhumerus -57.35029999999999 -11.481600000000004 97.4999
lradius 113.058
lwrist 30.1822
lhand -34.0474 -0.03582399999999955
lfingers nan
lthumb -7.225270000000004 29.8208
rclavicle 3.798029999999999e-14 5.665360000000007e-15
rhumerus -49.1999 14.6971 -105.533
rradius 112.153
rwrist -22.074000000000012
rhand -19.8963 31.308999999999994
rfingers nan
rthumb 6.439930000000001 1.426950000000006
21
root -0.9428350623341746 17.349970004150588 15.384715019111894 1.6163691671861766 6.448538384420516 0.16881776337311627
lfemur -19.605096590928056 -2.1921181930892244 -25.790102707697073
ltibia 46.61195510262033
lfoot -19.438003067151104 -3.0930915563802204
ltoes -6.710189367015828
rfemur -13.01207674397976 -5.655886765329929 20.560156509068214
rtibia 109.84363009028625
rfoot 19.66845400214912 -8.283737368275357
rtoes 23.277652709058742
lowerback 16.901013526699966 0.9854870945227845 -0.5345898279906083
upperback 0.34499700894303686 1.1566322768988428 -0.6281322201426405
thorax -8.58871626623978 0.5901625496824402 -0.15793701607108168
lowerneck -19.327052583234078 -5.7633616490918005 -1.924227870292479
upperneck 11.165728385633159 -7.9823153637478335 4.012300525528696
head 7.02775779627596 -3.5051821750597583 0.7269868486879457
lclavicle -8.856361307297274e-16 1.2746287855326067e-15
lhumerus -50.99490117897614 -14.555885518628045 98.13850573068444
lradius 114.64016668729161
lwrist 31.73949658207899
lhand -31.840098537355406 -0.3594065511827986
lfingers nan
lthumb -5.446076489771806 29.022943761935785
rclavicle -8.970708782810396e-16 1.247833421966249e-15
rhumerus -51.72570665653034 11.42594136954017 -105.77350647339799
rradius 109.91947400668685
rwrist -11.497803582506899
rhand -18.802481328826264 34.04256504494248
rfingers nan
rthumb 7.628691443309396 4.712829830791181
22
root -1.0065240427785094 17.1221890738628 10.700085906363267 1.771440140059112 3.337663451216047 3.4413247992416838
lfemur -12.078505539838005 -2.257940520469606 -30.112350528444523
ltibia 44.53789263849922
lfoot -22.508028264636643 0.4600972561577059
ltoes -6.705161568929051
rfemur -20.277087988417435 -7.37876333845532 14.335980301491473
rtibia 117.01968414329019
rfoot 17.342719927463538 -4.2769221654397676
rtoes 20.723222246291133
lowerback 17.30960379474525 0.9663845711590215 -3.8203130518708943
upperback 0.5422746990414721 0.6942825650205648 -1.7747901675621685
thorax -8.384106011627068 0.3992962792936862 0.47826618451077746
lowerneck -18.99882081550391 -5.431186689850597 -1.994981649721396
upperneck 11.649029669022651 -7.518807471727536 4.091934319473603
head 7.150121064741558 -3.3203867378999288 0.7945182855414749
lclavicle -8.906300635527355e-16 1.2795302605358912e-15
lhumerus -44.03276316502592 -17.129674526018736 97.96698524353411
lradius 114.84753406116911
lwrist 30.78047391674633
lhand -31.6304660257471 -1.4175171008079692
lfingers nan
lthumb -5.062635605889441 28.19609521017183
rclavicle -9.59570205292336e-16 1.224640263335011e-15
rhumerus -53.84665352688624 10.6728657153051 -105.8053961626325
rradius 109.9855140671791
rwrist -10.740794645800452
rhand -18.52571835027699 34.79197266056091
rfingers nan
rthumb 7.862382479957713 5.224396800305436
